<svg xmlns="http://www.w3.org/2000/svg" viewBox="0 0 110 20" class="icon_icon__yirhuh0 "><path d="M37 .4h-5.86v7.63h-6.1V.4h-5.86v19.2h5.86v-7.55h6.1v7.55H37V.4Zm20.39 15.34V.4h-5.86v19.2h10.59l.88-3.86h-5.62ZM47.19.4h-5.86v19.2h5.86V.4Zm23.76 0h-5.86v19.2h5.86V.4Zm28.89 4.9c0-1.04 1.04-1.53 2.73-1.53 1.85 0 3.85.4 5.22.96l-.48-4.18c-1.53-.32-2.89-.56-5.38-.56-4.74 0-7.95 1.87-7.95 5.78 0 6.75 9.15 5.38 9.15 8.51 0 1.2-.88 1.85-3.05 1.85-1.93 0-4.9-.64-6.66-1.53l.64 4.42c1.77.64 4.17.96 6.1.96 4.9 0 8.91-1.61 8.91-6.43 0-6.43-9.23-5.22-9.23-8.27Zm-16.53 9.72c5.46 0 8.91-2.81 8.91-7.71 0-5.38-3.69-7.31-9.71-7.31-2.33 0-5.14.16-7.14.4v19.2h5.86v-4.58h2.09Zm3.13-7.63c0 2.49-1.2 4.18-4.25 4.18h-.96V3.63c.34-.02.66-.02.96-.02 2.89 0 4.25 1.37 4.25 3.77ZM7.95 15.02c5.46 0 8.91-2.81 8.91-7.71C16.85 1.93 13.16 0 7.14 0 4.82 0 2.01.16 0 .4v19.2h5.86v-4.58h2.09Zm3.13-7.63c0 2.49-1.2 4.18-4.25 4.18h-.96V3.63c.34-.02.66-.02.96-.02 2.89 0 4.25 1.37 4.25 3.77Z"></path></svg>