<svg xmlns="http://www.w3.org/2000/svg" xml:space="preserve" enable-background="new 0 0 48 48" viewBox="0 0 48 48" class="icon_icon__yirhuh0 login_shield__pfnh3f3"><path d="M31.857 9.251h-.264V7.08c.094-.006.181-.006.264-.006.791 0 1.164.374 1.164 1.033 0 .682-.33 1.144-1.164 1.144zM12.393 8.108c0-.66-.374-1.033-1.164-1.033-.083 0-.171 0-.264.006v2.171h.264c.835-.001 1.164-.463 1.164-1.144zm28.873-5.162v25.778C41.266 38.242 33.519 46 24.001 46c-9.684 0-17.267-7.758-17.267-17.276V2.946C8.982 2.669 16.19 2 24.001 2c7.636 0 14.947.628 17.265.946zM29.911 11.45h1.603v-1.253h.571c1.494 0 2.439-.769 2.439-2.11 0-1.473-1.011-2.001-2.658-2.001-.637 0-1.406.044-1.955.11v5.254zm-2.812 0h1.604V6.195h-1.604v5.255zm-3.713 0h2.9l.241-1.055H24.99v-4.2h-1.604v5.255zm-2.789 0H22.2V6.195h-1.604v5.255zm-.262 2.776c.063.527.242 1.988.329 2.293a.814.814 0 0 0 .602.601c.374.103 2.482.342 2.482.342v.15s-2.108.249-2.482.352a.816.816 0 0 0-.602.601c-.083.291-.25 1.632-.32 2.213 1.247.165 2.586.319 2.586.319v.27s-3.914.45-4.59.636c-.452.123-.893.411-1.086 1.085-.178.623-.569 4.016-.627 4.527 2.756-.502 5.114-1.931 6.884-2.786 2.516-1.215 4.821-2.211 7.965-2.211 2.733 0 5.145.876 6.913 1.964-1.801-6.244-7.558-10.811-14.382-10.811a15.063 15.063 0 0 0-3.672.455zm-3.081 5.149c.193.676.634.961 1.086 1.085.258.071.984.181 1.785.289-.072-.596-.234-1.898-.317-2.184a.812.812 0 0 0-.6-.601c-.297-.081-1.672-.253-2.238-.323.106.782.212 1.483.284 1.734zm2.878-5.096a14.871 14.871 0 0 0-3.41 1.383c.06.502.139 1.153.221 1.775.548-.064 1.964-.234 2.266-.317a.812.812 0 0 0 .6-.601c.085-.295.255-1.674.323-2.24zm-5.599-2.829h1.604V9.383h1.67v2.066h1.604V6.195h-1.604v2.089h-1.67V6.195h-1.604v5.255zm-3.313 9.506c1.21-.148 2.971-.376 3.406-.496.45-.124.892-.409 1.084-1.085.125-.433.351-2.202.497-3.413a15.043 15.043 0 0 0-4.987 4.994zM9.283 11.45h1.604v-1.253h.571c1.494 0 2.438-.769 2.438-2.11 0-1.473-1.01-2.001-2.658-2.001-.637 0-1.406.044-1.955.11v5.254zm-.127 15.411c1.642.653 3.523.98 5.079.98.735 0 1.435-.064 2.102-.174-.06-.536-.449-3.957-.628-4.578-.191-.674-.633-.962-1.084-1.085-.473-.13-2.51-.387-3.706-.531a14.88 14.88 0 0 0-1.763 5.388zm15.87 9.474v-.27s3.913-.45 4.592-.637c.451-.124.892-.409 1.084-1.085.183-.639.598-4.231.642-4.617-2.683.497-4.523 1.735-6.83 2.914-2.452 1.254-4.845 2.153-7.957 2.153-2.745 0-5.187-.892-6.958-1.987 1.772 6.29 7.551 10.901 14.408 10.901 2.625 0 5.092-.677 7.237-1.864-.14-1.184-.404-3.306-.542-3.786-.191-.674-.633-.962-1.084-1.085-.679-.187-4.592-.637-4.592-.637zm11.802.13c-1.211.148-3.051.384-3.495.506-.452.124-.893.411-1.086 1.085-.127.443-.361 2.288-.507 3.5a15.046 15.046 0 0 0 5.088-5.091zm2.038-5.929c-1.65-.664-3.547-1.009-5.103-1.009-.789 0-1.502.056-2.161.157.035.306.459 4.012.644 4.659.193.676.634.961 1.086 1.085.481.133 2.598.399 3.782.542a14.868 14.868 0 0 0 1.752-5.434zm.107-1.879a15.24 15.24 0 0 0-.122-1.861c-1.891-1.197-4.518-1.811-6.717-1.811-3.345 0-5.353 1.023-7.561 2.119-2.833 1.407-5.545 3.097-9.483 3.097-2.398 0-4.527-.643-6.051-1.459v-.003c0 .621.039 1.253.112 1.855 1.893 1.205 4.528 1.801 6.736 1.801 3.345 0 5.359-.996 7.564-2.096 3.032-1.513 5.548-3.108 9.498-3.087 2.393.012 4.505.638 6.024 1.445zm.164-18.856c0-1.759-2.526-1.429-2.526-2.264 0-.286.286-.418.747-.418.505 0 1.055.11 1.428.264l-.132-1.144a6.267 6.267 0 0 0-1.472-.154c-1.296 0-2.175.511-2.175 1.583 0 1.847 2.505 1.473 2.505 2.33 0 .33-.241.506-.834.506-.527 0-1.34-.176-1.823-.418l.175 1.209c.483.176 1.142.264 1.67.264 1.339.001 2.437-.439 2.437-1.758zM25.018 39.995s1.641.194 1.933.274a.629.629 0 0 1 .467.468c.084.291.274 1.933.274 1.933h.118s.19-1.643.274-1.933a.633.633 0 0 1 .468-.468c.291-.08 1.932-.274 1.932-.274v-.117s-1.641-.194-1.932-.275a.63.63 0 0 1-.468-.468c-.083-.291-.274-1.933-.274-1.933h-.118s-.19 1.642-.274 1.933a.632.632 0 0 1-.467.468c-.293.081-1.933.275-1.933.275v.117z"></path></svg>